<mxfile host="app.diagrams.net" modified="2024-06-30T11:54:49.124Z" agent="Mozilla/5.0 (Windows NT 10.0; Win64; x64) AppleWebKit/537.36 (KHTML, like Gecko) Chrome/126.0.0.0 Safari/537.36 Edg/126.0.0.0" etag="QyA4y34klyvlTlMxNS9J" version="24.6.0" type="github">
  <diagram name="第 1 页" id="iwIfp1nPV168G7r7UrWe">
    <mxGraphModel dx="837" dy="441" grid="0" gridSize="10" guides="1" tooltips="1" connect="1" arrows="1" fold="1" page="0" pageScale="1" pageWidth="827" pageHeight="1169" math="0" shadow="0">
      <root>
        <mxCell id="0" />
        <mxCell id="1" parent="0" />
        <mxCell id="DYiFUSmJIpc-nI2bF0qj-2" value="" style="rounded=1;whiteSpace=wrap;html=1;" vertex="1" parent="1">
          <mxGeometry x="160" y="200" width="160" height="140" as="geometry" />
        </mxCell>
        <mxCell id="DYiFUSmJIpc-nI2bF0qj-1" value="3.tar.gz" style="rounded=0;whiteSpace=wrap;html=1;fillColor=#dae8fc;strokeColor=#6c8ebf;" vertex="1" parent="1">
          <mxGeometry x="170" y="230" width="140" height="20" as="geometry" />
        </mxCell>
        <mxCell id="DYiFUSmJIpc-nI2bF0qj-3" value="2.tar.gz" style="rounded=0;whiteSpace=wrap;html=1;fillColor=#fff2cc;strokeColor=#d6b656;" vertex="1" parent="1">
          <mxGeometry x="170" y="270" width="140" height="20" as="geometry" />
        </mxCell>
        <mxCell id="DYiFUSmJIpc-nI2bF0qj-4" value="1.tar.gz" style="rounded=0;whiteSpace=wrap;html=1;fillColor=#ffe6cc;strokeColor=#d79b00;" vertex="1" parent="1">
          <mxGeometry x="170" y="310" width="140" height="20" as="geometry" />
        </mxCell>
        <mxCell id="DYiFUSmJIpc-nI2bF0qj-5" value="&lt;font color=&quot;#ff0000&quot;&gt;docker 镜像&lt;/font&gt;" style="text;html=1;align=center;verticalAlign=middle;whiteSpace=wrap;rounded=0;" vertex="1" parent="1">
          <mxGeometry x="160" y="200" width="100" height="30" as="geometry" />
        </mxCell>
        <mxCell id="DYiFUSmJIpc-nI2bF0qj-6" value="1" style="rounded=1;whiteSpace=wrap;html=1;fillColor=#ffe6cc;strokeColor=#d79b00;" vertex="1" parent="1">
          <mxGeometry x="370" y="310" width="120" height="25" as="geometry" />
        </mxCell>
        <mxCell id="DYiFUSmJIpc-nI2bF0qj-7" value="" style="rounded=1;whiteSpace=wrap;html=1;" vertex="1" parent="1">
          <mxGeometry x="540" y="260" width="150" height="80" as="geometry" />
        </mxCell>
        <mxCell id="DYiFUSmJIpc-nI2bF0qj-8" value="2" style="rounded=1;whiteSpace=wrap;html=1;fillColor=#fff2cc;strokeColor=#d6b656;" vertex="1" parent="1">
          <mxGeometry x="555" y="270" width="120" height="25" as="geometry" />
        </mxCell>
        <mxCell id="DYiFUSmJIpc-nI2bF0qj-9" value="" style="rounded=1;whiteSpace=wrap;html=1;dashed=1;dashPattern=1 4;" vertex="1" parent="1">
          <mxGeometry x="555" y="307.5" width="120" height="25" as="geometry" />
        </mxCell>
        <mxCell id="DYiFUSmJIpc-nI2bF0qj-10" value="" style="rounded=1;whiteSpace=wrap;html=1;" vertex="1" parent="1">
          <mxGeometry x="740" y="200" width="140" height="140" as="geometry" />
        </mxCell>
        <mxCell id="DYiFUSmJIpc-nI2bF0qj-11" value="3" style="rounded=1;whiteSpace=wrap;html=1;fillColor=#dae8fc;strokeColor=#6c8ebf;" vertex="1" parent="1">
          <mxGeometry x="750" y="220" width="120" height="25" as="geometry" />
        </mxCell>
        <mxCell id="DYiFUSmJIpc-nI2bF0qj-12" value="" style="rounded=1;whiteSpace=wrap;html=1;dashed=1;dashPattern=1 4;" vertex="1" parent="1">
          <mxGeometry x="750" y="260" width="120" height="25" as="geometry" />
        </mxCell>
        <mxCell id="DYiFUSmJIpc-nI2bF0qj-13" value="" style="rounded=1;whiteSpace=wrap;html=1;dashed=1;dashPattern=1 4;" vertex="1" parent="1">
          <mxGeometry x="750" y="305" width="120" height="25" as="geometry" />
        </mxCell>
        <mxCell id="DYiFUSmJIpc-nI2bF0qj-14" value="" style="endArrow=classic;html=1;rounded=0;exitX=0.5;exitY=1;exitDx=0;exitDy=0;entryX=0.5;entryY=0;entryDx=0;entryDy=0;" edge="1" parent="1" source="DYiFUSmJIpc-nI2bF0qj-8" target="DYiFUSmJIpc-nI2bF0qj-9">
          <mxGeometry width="50" height="50" relative="1" as="geometry">
            <mxPoint x="680" y="450" as="sourcePoint" />
            <mxPoint x="680" y="480" as="targetPoint" />
          </mxGeometry>
        </mxCell>
        <mxCell id="DYiFUSmJIpc-nI2bF0qj-16" value="" style="endArrow=classic;html=1;rounded=0;exitX=0.5;exitY=1;exitDx=0;exitDy=0;entryX=0.5;entryY=0;entryDx=0;entryDy=0;" edge="1" parent="1" target="DYiFUSmJIpc-nI2bF0qj-13">
          <mxGeometry width="50" height="50" relative="1" as="geometry">
            <mxPoint x="809.88" y="285" as="sourcePoint" />
            <mxPoint x="809.88" y="298" as="targetPoint" />
          </mxGeometry>
        </mxCell>
        <mxCell id="DYiFUSmJIpc-nI2bF0qj-17" value="" style="endArrow=classic;html=1;rounded=0;exitX=0.5;exitY=1;exitDx=0;exitDy=0;" edge="1" parent="1">
          <mxGeometry width="50" height="50" relative="1" as="geometry">
            <mxPoint x="809.88" y="245" as="sourcePoint" />
            <mxPoint x="810" y="260" as="targetPoint" />
          </mxGeometry>
        </mxCell>
        <mxCell id="DYiFUSmJIpc-nI2bF0qj-18" value="&lt;font color=&quot;#ff0000&quot;&gt;Snapshot1&lt;/font&gt;&lt;div&gt;&lt;font color=&quot;#ff0000&quot;&gt;key: chainid1=diffId1&lt;/font&gt;&lt;/div&gt;" style="text;html=1;align=center;verticalAlign=middle;whiteSpace=wrap;rounded=0;" vertex="1" parent="1">
          <mxGeometry x="380" y="340" width="117" height="30" as="geometry" />
        </mxCell>
        <mxCell id="DYiFUSmJIpc-nI2bF0qj-19" value="&lt;font color=&quot;#ff0000&quot;&gt;Snapshot2&lt;/font&gt;&lt;div&gt;&lt;span style=&quot;color: rgb(255, 0, 0);&quot;&gt;key:&amp;nbsp;&lt;/span&gt;&lt;span style=&quot;color: rgb(255, 0, 0); background-color: initial;&quot;&gt;chainid2= op(chain1 diffid2)&lt;/span&gt;&lt;/div&gt;" style="text;html=1;align=center;verticalAlign=middle;whiteSpace=wrap;rounded=0;" vertex="1" parent="1">
          <mxGeometry x="529" y="348" width="204" height="30" as="geometry" />
        </mxCell>
        <mxCell id="DYiFUSmJIpc-nI2bF0qj-21" value="" style="endArrow=none;dashed=1;html=1;rounded=0;entryX=0;entryY=0.5;entryDx=0;entryDy=0;exitX=0.995;exitY=0.622;exitDx=0;exitDy=0;exitPerimeter=0;" edge="1" parent="1" source="DYiFUSmJIpc-nI2bF0qj-4" target="DYiFUSmJIpc-nI2bF0qj-6">
          <mxGeometry width="50" height="50" relative="1" as="geometry">
            <mxPoint x="310" y="320" as="sourcePoint" />
            <mxPoint x="360" y="270" as="targetPoint" />
          </mxGeometry>
        </mxCell>
        <mxCell id="DYiFUSmJIpc-nI2bF0qj-22" value="" style="endArrow=none;dashed=1;html=1;rounded=0;entryX=0.006;entryY=0.4;entryDx=0;entryDy=0;entryPerimeter=0;" edge="1" parent="1" target="DYiFUSmJIpc-nI2bF0qj-8">
          <mxGeometry width="50" height="50" relative="1" as="geometry">
            <mxPoint x="311" y="280" as="sourcePoint" />
            <mxPoint x="371" y="280.5" as="targetPoint" />
          </mxGeometry>
        </mxCell>
        <mxCell id="DYiFUSmJIpc-nI2bF0qj-23" value="" style="endArrow=none;dashed=1;html=1;rounded=0;entryX=0;entryY=0.75;entryDx=0;entryDy=0;" edge="1" parent="1" target="DYiFUSmJIpc-nI2bF0qj-11">
          <mxGeometry width="50" height="50" relative="1" as="geometry">
            <mxPoint x="310" y="239.82999999999998" as="sourcePoint" />
            <mxPoint x="555" y="239.82999999999998" as="targetPoint" />
          </mxGeometry>
        </mxCell>
        <mxCell id="DYiFUSmJIpc-nI2bF0qj-25" value="&lt;font color=&quot;#ff0000&quot;&gt;Snapshot3&lt;/font&gt;&lt;div&gt;&lt;span style=&quot;color: rgb(255, 0, 0);&quot;&gt;key:&amp;nbsp;&lt;/span&gt;&lt;span style=&quot;color: rgb(255, 0, 0); background-color: initial;&quot;&gt;chain3= op(chainid2 diffid3)&lt;/span&gt;&lt;/div&gt;" style="text;html=1;align=center;verticalAlign=middle;whiteSpace=wrap;rounded=0;" vertex="1" parent="1">
          <mxGeometry x="728" y="345" width="204" height="30" as="geometry" />
        </mxCell>
      </root>
    </mxGraphModel>
  </diagram>
</mxfile>
